<mxfile host="Electron" agent="Mozilla/5.0 (X11; Linux x86_64) AppleWebKit/537.36 (KHTML, like Gecko) draw.io/24.7.17 Chrome/128.0.6613.186 Electron/32.2.1 Safari/537.36" version="24.7.17">
  <diagram name="Page-1" id="kuxGt-2jCfrgJw1pwiJs">
    <mxGraphModel dx="1195" dy="729" grid="1" gridSize="10" guides="1" tooltips="1" connect="1" arrows="1" fold="1" page="1" pageScale="1" pageWidth="827" pageHeight="1169" math="0" shadow="0">
      <root>
        <mxCell id="0" />
        <mxCell id="1" parent="0" />
        <mxCell id="8Ok210YKob_pviOPnSTm-9" value="" style="endArrow=classic;startArrow=classic;html=1;rounded=0;fontColor=#007FFF;strokeColor=#007FFF;" parent="1" edge="1">
          <mxGeometry width="50" height="50" relative="1" as="geometry">
            <mxPoint x="420" y="600" as="sourcePoint" />
            <mxPoint x="420" y="240" as="targetPoint" />
          </mxGeometry>
        </mxCell>
        <mxCell id="8Ok210YKob_pviOPnSTm-13" value="" style="endArrow=classic;startArrow=classic;html=1;rounded=0;fontColor=#007FFF;strokeColor=#007FFF;" parent="1" edge="1">
          <mxGeometry width="50" height="50" relative="1" as="geometry">
            <mxPoint x="200" y="220" as="sourcePoint" />
            <mxPoint x="400" y="220" as="targetPoint" />
          </mxGeometry>
        </mxCell>
        <mxCell id="8Ok210YKob_pviOPnSTm-14" value="height" style="text;html=1;align=center;verticalAlign=middle;whiteSpace=wrap;rounded=0;fontColor=#007FFF;" parent="1" vertex="1">
          <mxGeometry x="430" y="400" width="60" height="30" as="geometry" />
        </mxCell>
        <mxCell id="8Ok210YKob_pviOPnSTm-19" value="width" style="text;html=1;align=center;verticalAlign=middle;whiteSpace=wrap;rounded=0;fontColor=#007FFF;" parent="1" vertex="1">
          <mxGeometry x="275" y="190" width="60" height="30" as="geometry" />
        </mxCell>
        <mxCell id="s-n0Uo4-dYcPovsnEo_s-2" value="" style="endArrow=classic;startArrow=classic;html=1;rounded=0;fontColor=#007FFF;strokeColor=#007FFF;" parent="1" edge="1">
          <mxGeometry width="50" height="50" relative="1" as="geometry">
            <mxPoint x="520" y="190" as="sourcePoint" />
            <mxPoint x="560" y="190" as="targetPoint" />
          </mxGeometry>
        </mxCell>
        <mxCell id="s-n0Uo4-dYcPovsnEo_s-3" value="speakerDepth" style="text;html=1;align=center;verticalAlign=middle;whiteSpace=wrap;rounded=0;fontColor=#007FFF;" parent="1" vertex="1">
          <mxGeometry x="530" y="150" width="60" height="30" as="geometry" />
        </mxCell>
        <mxCell id="btkEnOu7eWrAhPOFa9fZ-1" value="" style="rounded=0;whiteSpace=wrap;html=1;fillColor=none;" parent="1" vertex="1">
          <mxGeometry x="200" y="240" width="200" height="360" as="geometry" />
        </mxCell>
        <mxCell id="nMuqsIKXov33CQwPnBB1-3" value="" style="ellipse;whiteSpace=wrap;html=1;fillColor=none;" vertex="1" parent="1">
          <mxGeometry x="236.25" y="430" width="127.5" height="130" as="geometry" />
        </mxCell>
        <mxCell id="nMuqsIKXov33CQwPnBB1-4" value="" style="ellipse;whiteSpace=wrap;html=1;fillColor=none;gradientColor=none;" vertex="1" parent="1">
          <mxGeometry x="265" y="310" width="70" height="70" as="geometry" />
        </mxCell>
        <mxCell id="nMuqsIKXov33CQwPnBB1-7" value="" style="endArrow=none;html=1;rounded=0;curved=1;" edge="1" parent="1">
          <mxGeometry width="50" height="50" relative="1" as="geometry">
            <mxPoint x="520" y="680" as="sourcePoint" />
            <mxPoint x="560" y="640" as="targetPoint" />
            <Array as="points">
              <mxPoint x="520" y="640" />
            </Array>
          </mxGeometry>
        </mxCell>
        <mxCell id="nMuqsIKXov33CQwPnBB1-9" value="" style="rounded=0;whiteSpace=wrap;html=1;fillColor=none;" vertex="1" parent="1">
          <mxGeometry x="520" y="240" width="200" height="360" as="geometry" />
        </mxCell>
        <mxCell id="nMuqsIKXov33CQwPnBB1-12" value="" style="rounded=1;whiteSpace=wrap;html=1;fillColor=none;" vertex="1" parent="1">
          <mxGeometry x="520" y="310" width="20" height="70" as="geometry" />
        </mxCell>
        <mxCell id="nMuqsIKXov33CQwPnBB1-13" value="" style="rounded=1;whiteSpace=wrap;html=1;fillColor=none;" vertex="1" parent="1">
          <mxGeometry x="520" y="430" width="20" height="130" as="geometry" />
        </mxCell>
        <mxCell id="nMuqsIKXov33CQwPnBB1-14" value="" style="rounded=1;whiteSpace=wrap;html=1;fillColor=none;" vertex="1" parent="1">
          <mxGeometry x="540" y="320" width="20" height="50" as="geometry" />
        </mxCell>
        <mxCell id="nMuqsIKXov33CQwPnBB1-15" value="" style="rounded=1;whiteSpace=wrap;html=1;fillColor=none;" vertex="1" parent="1">
          <mxGeometry x="540" y="460" width="20" height="70" as="geometry" />
        </mxCell>
        <mxCell id="nMuqsIKXov33CQwPnBB1-16" value="" style="endArrow=none;html=1;rounded=0;curved=1;" edge="1" parent="1">
          <mxGeometry width="50" height="50" relative="1" as="geometry">
            <mxPoint x="520" y="800" as="sourcePoint" />
            <mxPoint x="560" y="840" as="targetPoint" />
            <Array as="points">
              <mxPoint x="520" y="840" />
            </Array>
          </mxGeometry>
        </mxCell>
        <mxCell id="nMuqsIKXov33CQwPnBB1-17" value="" style="endArrow=none;html=1;rounded=0;" edge="1" parent="1">
          <mxGeometry width="50" height="50" relative="1" as="geometry">
            <mxPoint x="520" y="800" as="sourcePoint" />
            <mxPoint x="520" y="680" as="targetPoint" />
          </mxGeometry>
        </mxCell>
        <mxCell id="nMuqsIKXov33CQwPnBB1-18" value="" style="endArrow=none;html=1;rounded=0;" edge="1" parent="1">
          <mxGeometry width="50" height="50" relative="1" as="geometry">
            <mxPoint x="720" y="640" as="sourcePoint" />
            <mxPoint x="560" y="640" as="targetPoint" />
          </mxGeometry>
        </mxCell>
        <mxCell id="nMuqsIKXov33CQwPnBB1-19" value="" style="endArrow=none;html=1;rounded=0;" edge="1" parent="1">
          <mxGeometry width="50" height="50" relative="1" as="geometry">
            <mxPoint x="720" y="840" as="sourcePoint" />
            <mxPoint x="560" y="840" as="targetPoint" />
          </mxGeometry>
        </mxCell>
        <mxCell id="nMuqsIKXov33CQwPnBB1-20" value="" style="endArrow=none;html=1;rounded=0;" edge="1" parent="1">
          <mxGeometry width="50" height="50" relative="1" as="geometry">
            <mxPoint x="720" y="840" as="sourcePoint" />
            <mxPoint x="720" y="640" as="targetPoint" />
          </mxGeometry>
        </mxCell>
        <mxCell id="nMuqsIKXov33CQwPnBB1-21" value="" style="rounded=1;whiteSpace=wrap;html=1;fillColor=none;" vertex="1" parent="1">
          <mxGeometry x="520" y="680" width="20" height="120" as="geometry" />
        </mxCell>
        <mxCell id="nMuqsIKXov33CQwPnBB1-22" value="" style="rounded=1;whiteSpace=wrap;html=1;fillColor=none;" vertex="1" parent="1">
          <mxGeometry x="540" y="710" width="20" height="60" as="geometry" />
        </mxCell>
        <mxCell id="nMuqsIKXov33CQwPnBB1-24" value="" style="ellipse;whiteSpace=wrap;html=1;fillColor=none;gradientColor=none;" vertex="1" parent="1">
          <mxGeometry x="275" y="320" width="50" height="50" as="geometry" />
        </mxCell>
        <mxCell id="nMuqsIKXov33CQwPnBB1-25" value="" style="ellipse;whiteSpace=wrap;html=1;fillColor=none;" vertex="1" parent="1">
          <mxGeometry x="255" y="450" width="90" height="90" as="geometry" />
        </mxCell>
        <mxCell id="nMuqsIKXov33CQwPnBB1-26" value="" style="endArrow=classic;startArrow=classic;html=1;rounded=0;fontColor=#007FFF;strokeColor=#007FFF;" edge="1" parent="1">
          <mxGeometry width="50" height="50" relative="1" as="geometry">
            <mxPoint x="520" y="220" as="sourcePoint" />
            <mxPoint x="720" y="220" as="targetPoint" />
          </mxGeometry>
        </mxCell>
        <mxCell id="nMuqsIKXov33CQwPnBB1-27" value="depth" style="text;html=1;align=center;verticalAlign=middle;whiteSpace=wrap;rounded=0;fontColor=#007FFF;" vertex="1" parent="1">
          <mxGeometry x="590" y="190" width="60" height="30" as="geometry" />
        </mxCell>
      </root>
    </mxGraphModel>
  </diagram>
</mxfile>
